# xmcd CD database file
#
# Track frame offsets:
#	150
#	17367
#	32035
#	52017
#	66917
#	83945
#	100970
#	119754
#	138470
#	152945
#	169077
#	189970
#	204995
#
# Disc length: 2981 seconds
#
# Revision: 0
# Processed by: cddbd v1.5.1PL0 Copyright (c) Steve Scherf et al.
# Submitted via: CDex 1.51
#
DISCID=b20ba30d
DTITLE=Collard Greens and Gravy - Silver Bird
DYEAR=2004
DGENRE=Blues
TTITLE0=Worried Now
TTITLE1=Love Me Right
TTITLE2=Go Back to Your Used to Be
TTITLE3=Silver Bird
TTITLE4=What You Do to Me
TTITLE5=Man Trouble Blues
TTITLE6=Standing on a Limb
TTITLE7=Driving All Night
TTITLE8=I Wanna Ramble
TTITLE9=Bluff City Blues
TTITLE10=Mistreated
TTITLE11=Gotta See Ya
TTITLE12=Going Mad
EXTD=YEAR: 2004
EXTT0=
EXTT1=
EXTT2=
EXTT3=
EXTT4=
EXTT5=
EXTT6=
EXTT7=
EXTT8=
EXTT9=
EXTT10=
EXTT11=
EXTT12=
PLAYORDER=
